<mxfile host="app.diagrams.net" modified="2023-01-17T08:40:35.790Z" agent="5.0 (Windows NT 10.0; Win64; x64) AppleWebKit/537.36 (KHTML, like Gecko) Chrome/109.0.0.0 Safari/537.36" etag="vEqnb6LCeRvNUEbjJY48" version="20.8.5" type="github">
  <diagram name="Page-1" id="13e1069c-82ec-6db2-03f1-153e76fe0fe0">
    <mxGraphModel dx="2943" dy="790" grid="1" gridSize="10" guides="1" tooltips="1" connect="1" arrows="1" fold="1" page="1" pageScale="1" pageWidth="1100" pageHeight="850" background="none" math="0" shadow="0">
      <root>
        <mxCell id="0" />
        <mxCell id="1" parent="0" />
        <mxCell id="79AUoB6FNL37pNO1iU7B-1" value="End-User" style="shape=umlActor;verticalLabelPosition=bottom;verticalAlign=top;html=1;outlineConnect=0;" vertex="1" parent="1">
          <mxGeometry x="70" y="50" width="30" height="60" as="geometry" />
        </mxCell>
        <mxCell id="79AUoB6FNL37pNO1iU7B-2" value="VocabCLI commands/functions" style="rounded=0;whiteSpace=wrap;html=1;" vertex="1" parent="1">
          <mxGeometry x="530" y="60" width="120" height="60" as="geometry" />
        </mxCell>
        <mxCell id="79AUoB6FNL37pNO1iU7B-3" value="Database" style="rounded=0;whiteSpace=wrap;html=1;" vertex="1" parent="1">
          <mxGeometry x="740" y="60" width="120" height="60" as="geometry" />
        </mxCell>
        <mxCell id="79AUoB6FNL37pNO1iU7B-4" value="Dictionary RestAPI&amp;nbsp;" style="rounded=0;whiteSpace=wrap;html=1;" vertex="1" parent="1">
          <mxGeometry x="930" y="60" width="120" height="60" as="geometry" />
        </mxCell>
        <mxCell id="79AUoB6FNL37pNO1iU7B-6" value="Terminal" style="rounded=0;whiteSpace=wrap;html=1;" vertex="1" parent="1">
          <mxGeometry x="320" y="60" width="120" height="60" as="geometry" />
        </mxCell>
        <mxCell id="79AUoB6FNL37pNO1iU7B-7" value="" style="endArrow=none;dashed=1;html=1;rounded=0;" edge="1" parent="1" target="79AUoB6FNL37pNO1iU7B-1">
          <mxGeometry width="50" height="50" relative="1" as="geometry">
            <mxPoint x="85" y="980" as="sourcePoint" />
            <mxPoint x="570" y="110" as="targetPoint" />
          </mxGeometry>
        </mxCell>
        <mxCell id="79AUoB6FNL37pNO1iU7B-9" value="" style="endArrow=none;dashed=1;html=1;rounded=0;entryX=0.5;entryY=1;entryDx=0;entryDy=0;startArrow=none;" edge="1" parent="1" source="79AUoB6FNL37pNO1iU7B-72" target="79AUoB6FNL37pNO1iU7B-6">
          <mxGeometry width="50" height="50" relative="1" as="geometry">
            <mxPoint x="380" y="970" as="sourcePoint" />
            <mxPoint x="410" y="180" as="targetPoint" />
          </mxGeometry>
        </mxCell>
        <mxCell id="79AUoB6FNL37pNO1iU7B-10" value="" style="endArrow=none;dashed=1;html=1;rounded=0;entryX=0.5;entryY=1;entryDx=0;entryDy=0;startArrow=none;" edge="1" parent="1" source="79AUoB6FNL37pNO1iU7B-75" target="79AUoB6FNL37pNO1iU7B-2">
          <mxGeometry width="50" height="50" relative="1" as="geometry">
            <mxPoint x="580" y="970" as="sourcePoint" />
            <mxPoint x="600" y="120" as="targetPoint" />
          </mxGeometry>
        </mxCell>
        <mxCell id="79AUoB6FNL37pNO1iU7B-11" value="" style="endArrow=none;dashed=1;html=1;rounded=0;entryX=0.5;entryY=1;entryDx=0;entryDy=0;startArrow=none;" edge="1" parent="1" source="79AUoB6FNL37pNO1iU7B-78" target="79AUoB6FNL37pNO1iU7B-3">
          <mxGeometry width="50" height="50" relative="1" as="geometry">
            <mxPoint x="800" y="970" as="sourcePoint" />
            <mxPoint x="600" y="130" as="targetPoint" />
          </mxGeometry>
        </mxCell>
        <mxCell id="79AUoB6FNL37pNO1iU7B-12" value="" style="endArrow=none;dashed=1;html=1;rounded=0;entryX=0.582;entryY=1.04;entryDx=0;entryDy=0;entryPerimeter=0;" edge="1" parent="1" target="79AUoB6FNL37pNO1iU7B-4">
          <mxGeometry width="50" height="50" relative="1" as="geometry">
            <mxPoint x="1000" y="970" as="sourcePoint" />
            <mxPoint x="1000" y="160" as="targetPoint" />
          </mxGeometry>
        </mxCell>
        <mxCell id="79AUoB6FNL37pNO1iU7B-13" value="" style="endArrow=classic;html=1;rounded=0;" edge="1" parent="1">
          <mxGeometry width="50" height="50" relative="1" as="geometry">
            <mxPoint x="80" y="172" as="sourcePoint" />
            <mxPoint x="379" y="172" as="targetPoint" />
          </mxGeometry>
        </mxCell>
        <mxCell id="79AUoB6FNL37pNO1iU7B-14" value="Open Up Terminal" style="edgeLabel;html=1;align=center;verticalAlign=middle;resizable=0;points=[];" vertex="1" connectable="0" parent="79AUoB6FNL37pNO1iU7B-13">
          <mxGeometry x="-0.3036" y="2" relative="1" as="geometry">
            <mxPoint x="16" y="-10" as="offset" />
          </mxGeometry>
        </mxCell>
        <mxCell id="79AUoB6FNL37pNO1iU7B-15" value="" style="endArrow=classic;html=1;rounded=0;" edge="1" parent="1">
          <mxGeometry width="50" height="50" relative="1" as="geometry">
            <mxPoint x="80" y="250" as="sourcePoint" />
            <mxPoint x="379" y="250" as="targetPoint" />
          </mxGeometry>
        </mxCell>
        <mxCell id="79AUoB6FNL37pNO1iU7B-16" value="Enter a command (with applicable flags and arguments)" style="edgeLabel;html=1;align=center;verticalAlign=middle;resizable=0;points=[];" vertex="1" connectable="0" parent="79AUoB6FNL37pNO1iU7B-15">
          <mxGeometry x="-0.3036" y="2" relative="1" as="geometry">
            <mxPoint x="36" y="-8" as="offset" />
          </mxGeometry>
        </mxCell>
        <mxCell id="79AUoB6FNL37pNO1iU7B-17" value="" style="endArrow=classic;html=1;rounded=0;" edge="1" parent="1">
          <mxGeometry width="50" height="50" relative="1" as="geometry">
            <mxPoint x="380" y="270" as="sourcePoint" />
            <mxPoint x="590" y="270" as="targetPoint" />
          </mxGeometry>
        </mxCell>
        <mxCell id="79AUoB6FNL37pNO1iU7B-18" value="Verify if command is valid&lt;br&gt;&amp;nbsp;(with data type checking for &lt;br&gt;arguments and flags)" style="edgeLabel;html=1;align=center;verticalAlign=middle;resizable=0;points=[];" vertex="1" connectable="0" parent="79AUoB6FNL37pNO1iU7B-17">
          <mxGeometry x="-0.3036" y="2" relative="1" as="geometry">
            <mxPoint x="37" y="-18" as="offset" />
          </mxGeometry>
        </mxCell>
        <mxCell id="79AUoB6FNL37pNO1iU7B-19" value="" style="endArrow=classic;html=1;rounded=0;" edge="1" parent="1">
          <mxGeometry width="50" height="50" relative="1" as="geometry">
            <mxPoint x="590" y="290" as="sourcePoint" />
            <mxPoint x="800.0000000000002" y="290" as="targetPoint" />
          </mxGeometry>
        </mxCell>
        <mxCell id="79AUoB6FNL37pNO1iU7B-20" value="Create a DB at runtime populating &lt;br&gt;it with empty rows for 5 tables &lt;br&gt;and word collections for the &lt;br&gt;sixth table based on the schema" style="edgeLabel;html=1;align=center;verticalAlign=middle;resizable=0;points=[];" vertex="1" connectable="0" parent="79AUoB6FNL37pNO1iU7B-19">
          <mxGeometry x="-0.3036" y="2" relative="1" as="geometry">
            <mxPoint x="37" y="-28" as="offset" />
          </mxGeometry>
        </mxCell>
        <mxCell id="79AUoB6FNL37pNO1iU7B-21" value="" style="endArrow=classic;html=1;rounded=0;" edge="1" parent="1">
          <mxGeometry width="50" height="50" relative="1" as="geometry">
            <mxPoint x="800" y="310" as="sourcePoint" />
            <mxPoint x="1000" y="310" as="targetPoint" />
          </mxGeometry>
        </mxCell>
        <mxCell id="79AUoB6FNL37pNO1iU7B-22" value="Make request to API &lt;br&gt;with the user query" style="edgeLabel;html=1;align=center;verticalAlign=middle;resizable=0;points=[];" vertex="1" connectable="0" parent="79AUoB6FNL37pNO1iU7B-21">
          <mxGeometry x="-0.3036" y="2" relative="1" as="geometry">
            <mxPoint x="37" y="-28" as="offset" />
          </mxGeometry>
        </mxCell>
        <mxCell id="79AUoB6FNL37pNO1iU7B-23" value="Alternative" style="shape=umlFrame;whiteSpace=wrap;html=1;width=90;height=40;" vertex="1" parent="1">
          <mxGeometry x="-60" y="290" width="660" height="140" as="geometry" />
        </mxCell>
        <mxCell id="79AUoB6FNL37pNO1iU7B-28" value="" style="endArrow=none;dashed=1;html=1;dashPattern=1 3;strokeWidth=2;rounded=0;exitX=-0.001;exitY=0.508;exitDx=0;exitDy=0;exitPerimeter=0;entryX=1;entryY=0.505;entryDx=0;entryDy=0;entryPerimeter=0;" edge="1" parent="1" source="79AUoB6FNL37pNO1iU7B-23" target="79AUoB6FNL37pNO1iU7B-23">
          <mxGeometry width="50" height="50" relative="1" as="geometry">
            <mxPoint x="380" y="310" as="sourcePoint" />
            <mxPoint x="430" y="260" as="targetPoint" />
          </mxGeometry>
        </mxCell>
        <mxCell id="79AUoB6FNL37pNO1iU7B-31" value="Command Valid" style="endArrow=open;endSize=12;dashed=1;html=1;rounded=0;" edge="1" parent="1">
          <mxGeometry x="0.1429" y="-20" width="160" relative="1" as="geometry">
            <mxPoint x="590" y="330" as="sourcePoint" />
            <mxPoint x="380" y="330" as="targetPoint" />
            <Array as="points">
              <mxPoint x="490" y="330" />
            </Array>
            <mxPoint as="offset" />
          </mxGeometry>
        </mxCell>
        <mxCell id="79AUoB6FNL37pNO1iU7B-32" value="Command Invalid" style="endArrow=open;endSize=12;dashed=1;html=1;rounded=0;" edge="1" parent="1">
          <mxGeometry x="0.1429" y="-20" width="160" relative="1" as="geometry">
            <mxPoint x="590" y="390" as="sourcePoint" />
            <mxPoint x="380" y="390" as="targetPoint" />
            <Array as="points">
              <mxPoint x="490" y="390" />
            </Array>
            <mxPoint as="offset" />
          </mxGeometry>
        </mxCell>
        <mxCell id="79AUoB6FNL37pNO1iU7B-33" value="" style="endArrow=classic;html=1;rounded=0;" edge="1" parent="1">
          <mxGeometry width="50" height="50" relative="1" as="geometry">
            <mxPoint x="380" y="340" as="sourcePoint" />
            <mxPoint x="90" y="340" as="targetPoint" />
          </mxGeometry>
        </mxCell>
        <mxCell id="79AUoB6FNL37pNO1iU7B-34" value="Display relevant output to user" style="edgeLabel;html=1;align=center;verticalAlign=middle;resizable=0;points=[];" vertex="1" connectable="0" parent="79AUoB6FNL37pNO1iU7B-33">
          <mxGeometry x="-0.3036" y="2" relative="1" as="geometry">
            <mxPoint x="-39" y="-12" as="offset" />
          </mxGeometry>
        </mxCell>
        <mxCell id="79AUoB6FNL37pNO1iU7B-36" value="" style="endArrow=classic;html=1;rounded=0;" edge="1" parent="1">
          <mxGeometry width="50" height="50" relative="1" as="geometry">
            <mxPoint x="380" y="400" as="sourcePoint" />
            <mxPoint x="90" y="400" as="targetPoint" />
          </mxGeometry>
        </mxCell>
        <mxCell id="79AUoB6FNL37pNO1iU7B-37" value="Display Typer Exception/Custom Exception&lt;br&gt;&amp;nbsp;based on Command/Flags" style="edgeLabel;html=1;align=center;verticalAlign=middle;resizable=0;points=[];" vertex="1" connectable="0" parent="79AUoB6FNL37pNO1iU7B-36">
          <mxGeometry x="-0.3036" y="2" relative="1" as="geometry">
            <mxPoint x="-39" y="-22" as="offset" />
          </mxGeometry>
        </mxCell>
        <mxCell id="79AUoB6FNL37pNO1iU7B-38" value="[ If command is valid ]" style="text;html=1;strokeColor=none;fillColor=none;align=center;verticalAlign=middle;whiteSpace=wrap;rounded=0;" vertex="1" parent="1">
          <mxGeometry x="-70" y="330" width="160" height="30" as="geometry" />
        </mxCell>
        <mxCell id="79AUoB6FNL37pNO1iU7B-39" value="[ If command is invalid ]" style="text;html=1;strokeColor=none;fillColor=none;align=center;verticalAlign=middle;whiteSpace=wrap;rounded=0;" vertex="1" parent="1">
          <mxGeometry x="-70" y="380" width="160" height="30" as="geometry" />
        </mxCell>
        <mxCell id="79AUoB6FNL37pNO1iU7B-42" value="" style="endArrow=open;endSize=12;dashed=1;html=1;rounded=0;" edge="1" parent="1">
          <mxGeometry x="0.1429" y="-20" width="160" relative="1" as="geometry">
            <mxPoint x="1000" y="450" as="sourcePoint" />
            <mxPoint x="800" y="450" as="targetPoint" />
            <Array as="points">
              <mxPoint x="910" y="450" />
            </Array>
            <mxPoint as="offset" />
          </mxGeometry>
        </mxCell>
        <mxCell id="79AUoB6FNL37pNO1iU7B-43" value="Return Valid Response" style="edgeLabel;html=1;align=center;verticalAlign=middle;resizable=0;points=[];" vertex="1" connectable="0" parent="79AUoB6FNL37pNO1iU7B-42">
          <mxGeometry x="-0.2339" y="-3" relative="1" as="geometry">
            <mxPoint x="-13" y="-17" as="offset" />
          </mxGeometry>
        </mxCell>
        <mxCell id="79AUoB6FNL37pNO1iU7B-44" value="" style="endArrow=open;endSize=12;dashed=1;html=1;rounded=0;" edge="1" parent="1">
          <mxGeometry x="0.1429" y="-20" width="160" relative="1" as="geometry">
            <mxPoint x="1000" y="530" as="sourcePoint" />
            <mxPoint x="800" y="530" as="targetPoint" />
            <Array as="points">
              <mxPoint x="910" y="530" />
            </Array>
            <mxPoint as="offset" />
          </mxGeometry>
        </mxCell>
        <mxCell id="79AUoB6FNL37pNO1iU7B-45" value="Return Invalid Response" style="edgeLabel;html=1;align=center;verticalAlign=middle;resizable=0;points=[];" vertex="1" connectable="0" parent="79AUoB6FNL37pNO1iU7B-44">
          <mxGeometry x="-0.2339" y="-3" relative="1" as="geometry">
            <mxPoint x="-13" y="-17" as="offset" />
          </mxGeometry>
        </mxCell>
        <mxCell id="79AUoB6FNL37pNO1iU7B-46" value="" style="endArrow=classic;html=1;rounded=0;" edge="1" parent="1">
          <mxGeometry width="50" height="50" relative="1" as="geometry">
            <mxPoint x="800" y="470" as="sourcePoint" />
            <mxPoint x="590" y="470" as="targetPoint" />
            <Array as="points">
              <mxPoint x="700" y="470" />
            </Array>
          </mxGeometry>
        </mxCell>
        <mxCell id="79AUoB6FNL37pNO1iU7B-47" value="Cache Response and &lt;br&gt;add word/quote/rss to list&amp;nbsp;" style="edgeLabel;html=1;align=center;verticalAlign=middle;resizable=0;points=[];" vertex="1" connectable="0" parent="79AUoB6FNL37pNO1iU7B-46">
          <mxGeometry x="0.0774" y="-1" relative="1" as="geometry">
            <mxPoint x="13" y="-19" as="offset" />
          </mxGeometry>
        </mxCell>
        <mxCell id="79AUoB6FNL37pNO1iU7B-48" value="" style="endArrow=classic;html=1;rounded=0;" edge="1" parent="1">
          <mxGeometry width="50" height="50" relative="1" as="geometry">
            <mxPoint x="800" y="540" as="sourcePoint" />
            <mxPoint x="590" y="540" as="targetPoint" />
            <Array as="points">
              <mxPoint x="700" y="540" />
            </Array>
          </mxGeometry>
        </mxCell>
        <mxCell id="79AUoB6FNL37pNO1iU7B-49" value="Determine &lt;br&gt;User-Define Exception" style="edgeLabel;html=1;align=center;verticalAlign=middle;resizable=0;points=[];" vertex="1" connectable="0" parent="79AUoB6FNL37pNO1iU7B-48">
          <mxGeometry x="0.0774" y="-1" relative="1" as="geometry">
            <mxPoint x="13" y="-19" as="offset" />
          </mxGeometry>
        </mxCell>
        <mxCell id="79AUoB6FNL37pNO1iU7B-50" value="" style="endArrow=classic;html=1;rounded=0;" edge="1" parent="1">
          <mxGeometry width="50" height="50" relative="1" as="geometry">
            <mxPoint x="590" y="480" as="sourcePoint" />
            <mxPoint x="380" y="480" as="targetPoint" />
            <Array as="points">
              <mxPoint x="490" y="480" />
            </Array>
          </mxGeometry>
        </mxCell>
        <mxCell id="79AUoB6FNL37pNO1iU7B-51" value="Prettify and structure response &lt;br&gt;for the user, filtering JSON" style="edgeLabel;html=1;align=center;verticalAlign=middle;resizable=0;points=[];" vertex="1" connectable="0" parent="79AUoB6FNL37pNO1iU7B-50">
          <mxGeometry x="0.0774" y="-1" relative="1" as="geometry">
            <mxPoint x="13" y="-19" as="offset" />
          </mxGeometry>
        </mxCell>
        <mxCell id="79AUoB6FNL37pNO1iU7B-52" value="" style="endArrow=classic;html=1;rounded=0;" edge="1" parent="1">
          <mxGeometry width="50" height="50" relative="1" as="geometry">
            <mxPoint x="590" y="550" as="sourcePoint" />
            <mxPoint x="380" y="550" as="targetPoint" />
            <Array as="points">
              <mxPoint x="490" y="550" />
            </Array>
          </mxGeometry>
        </mxCell>
        <mxCell id="79AUoB6FNL37pNO1iU7B-53" value="Call the User-Defined Exceptions" style="edgeLabel;html=1;align=center;verticalAlign=middle;resizable=0;points=[];" vertex="1" connectable="0" parent="79AUoB6FNL37pNO1iU7B-52">
          <mxGeometry x="0.0774" y="-1" relative="1" as="geometry">
            <mxPoint x="13" y="-19" as="offset" />
          </mxGeometry>
        </mxCell>
        <mxCell id="79AUoB6FNL37pNO1iU7B-54" value="" style="endArrow=classic;html=1;rounded=0;" edge="1" parent="1">
          <mxGeometry width="50" height="50" relative="1" as="geometry">
            <mxPoint x="380" y="490" as="sourcePoint" />
            <mxPoint x="90" y="490" as="targetPoint" />
            <Array as="points">
              <mxPoint x="280" y="490" />
            </Array>
          </mxGeometry>
        </mxCell>
        <mxCell id="79AUoB6FNL37pNO1iU7B-55" value="Show Relevant Output" style="edgeLabel;html=1;align=center;verticalAlign=middle;resizable=0;points=[];" vertex="1" connectable="0" parent="79AUoB6FNL37pNO1iU7B-54">
          <mxGeometry x="0.0774" y="-1" relative="1" as="geometry">
            <mxPoint x="13" y="-19" as="offset" />
          </mxGeometry>
        </mxCell>
        <mxCell id="79AUoB6FNL37pNO1iU7B-56" value="" style="endArrow=classic;html=1;rounded=0;" edge="1" parent="1">
          <mxGeometry width="50" height="50" relative="1" as="geometry">
            <mxPoint x="380" y="560" as="sourcePoint" />
            <mxPoint x="90" y="560" as="targetPoint" />
            <Array as="points">
              <mxPoint x="280" y="560" />
            </Array>
          </mxGeometry>
        </mxCell>
        <mxCell id="79AUoB6FNL37pNO1iU7B-57" value="Show Error Message" style="edgeLabel;html=1;align=center;verticalAlign=middle;resizable=0;points=[];" vertex="1" connectable="0" parent="79AUoB6FNL37pNO1iU7B-56">
          <mxGeometry x="0.0774" y="-1" relative="1" as="geometry">
            <mxPoint x="13" y="-19" as="offset" />
          </mxGeometry>
        </mxCell>
        <mxCell id="79AUoB6FNL37pNO1iU7B-61" value="Alternative" style="shape=umlFrame;whiteSpace=wrap;html=1;width=90;height=40;" vertex="1" parent="1">
          <mxGeometry x="620" y="360" width="390" height="210" as="geometry" />
        </mxCell>
        <mxCell id="79AUoB6FNL37pNO1iU7B-62" value="[ If word/input is valid ]" style="text;html=1;strokeColor=none;fillColor=none;align=center;verticalAlign=middle;whiteSpace=wrap;rounded=0;" vertex="1" parent="1">
          <mxGeometry x="630" y="400" width="140" height="30" as="geometry" />
        </mxCell>
        <mxCell id="79AUoB6FNL37pNO1iU7B-63" value="[ If word/input is invalid ]" style="text;html=1;strokeColor=none;fillColor=none;align=center;verticalAlign=middle;whiteSpace=wrap;rounded=0;" vertex="1" parent="1">
          <mxGeometry x="630" y="470" width="140" height="30" as="geometry" />
        </mxCell>
        <mxCell id="79AUoB6FNL37pNO1iU7B-65" value="" style="curved=1;endArrow=classic;html=1;rounded=0;" edge="1" parent="1">
          <mxGeometry width="50" height="50" relative="1" as="geometry">
            <mxPoint x="90" y="610" as="sourcePoint" />
            <mxPoint x="80" y="750" as="targetPoint" />
            <Array as="points">
              <mxPoint x="300" y="650" />
            </Array>
          </mxGeometry>
        </mxCell>
        <mxCell id="79AUoB6FNL37pNO1iU7B-66" value="Enter more commands &lt;br&gt;as many times as needed" style="text;html=1;align=center;verticalAlign=middle;resizable=0;points=[];autosize=1;strokeColor=none;fillColor=none;" vertex="1" parent="1">
          <mxGeometry x="190" y="645" width="160" height="40" as="geometry" />
        </mxCell>
        <mxCell id="79AUoB6FNL37pNO1iU7B-67" value="Exit Program" style="endArrow=classic;html=1;rounded=0;" edge="1" parent="1">
          <mxGeometry x="-0.0345" y="10" width="50" height="50" relative="1" as="geometry">
            <mxPoint x="80" y="820" as="sourcePoint" />
            <mxPoint x="380" y="820" as="targetPoint" />
            <mxPoint as="offset" />
          </mxGeometry>
        </mxCell>
        <mxCell id="79AUoB6FNL37pNO1iU7B-69" value="Perform Resource Cleanup" style="endArrow=classic;html=1;rounded=0;" edge="1" parent="1">
          <mxGeometry x="-0.0345" y="10" width="50" height="50" relative="1" as="geometry">
            <mxPoint x="380" y="840" as="sourcePoint" />
            <mxPoint x="580" y="840" as="targetPoint" />
            <mxPoint as="offset" />
          </mxGeometry>
        </mxCell>
        <mxCell id="79AUoB6FNL37pNO1iU7B-71" value="Terminate Command Line Interface&amp;nbsp;" style="endArrow=open;endSize=12;dashed=1;html=1;rounded=0;" edge="1" parent="1">
          <mxGeometry x="0.1724" y="-10" width="160" relative="1" as="geometry">
            <mxPoint x="380" y="870" as="sourcePoint" />
            <mxPoint x="90" y="870" as="targetPoint" />
            <Array as="points">
              <mxPoint x="280" y="870" />
            </Array>
            <mxPoint as="offset" />
          </mxGeometry>
        </mxCell>
        <mxCell id="79AUoB6FNL37pNO1iU7B-74" value="" style="endArrow=none;dashed=1;html=1;rounded=0;entryX=0.5;entryY=1;entryDx=0;entryDy=0;" edge="1" parent="1" target="79AUoB6FNL37pNO1iU7B-72">
          <mxGeometry width="50" height="50" relative="1" as="geometry">
            <mxPoint x="380" y="970" as="sourcePoint" />
            <mxPoint x="380" y="120.00000000000011" as="targetPoint" />
          </mxGeometry>
        </mxCell>
        <mxCell id="79AUoB6FNL37pNO1iU7B-72" value="" style="verticalLabelPosition=bottom;verticalAlign=top;html=1;shape=mxgraph.basic.rect;fillColor2=none;strokeWidth=1;size=20;indent=0;rotation=-90;fillColor=#CFDAFF;" vertex="1" parent="1">
          <mxGeometry x="14.38" y="500.62" width="731.25" height="10" as="geometry" />
        </mxCell>
        <mxCell id="79AUoB6FNL37pNO1iU7B-76" value="" style="endArrow=none;dashed=1;html=1;rounded=0;entryX=0.5;entryY=1;entryDx=0;entryDy=0;" edge="1" parent="1" target="79AUoB6FNL37pNO1iU7B-75">
          <mxGeometry width="50" height="50" relative="1" as="geometry">
            <mxPoint x="580" y="970" as="sourcePoint" />
            <mxPoint x="590" y="120.00000000000011" as="targetPoint" />
          </mxGeometry>
        </mxCell>
        <mxCell id="79AUoB6FNL37pNO1iU7B-75" value="" style="verticalLabelPosition=bottom;verticalAlign=top;html=1;shape=mxgraph.basic.rect;fillColor2=none;strokeWidth=1;size=20;indent=0;rotation=-90;" vertex="1" parent="1">
          <mxGeometry x="297.18" y="537.18" width="585.62" height="10" as="geometry" />
        </mxCell>
        <mxCell id="79AUoB6FNL37pNO1iU7B-80" value="" style="verticalLabelPosition=bottom;verticalAlign=top;html=1;shape=mxgraph.basic.rect;fillColor2=none;strokeWidth=1;size=20;indent=0;rotation=-90;fillColor=#CFDAFF;" vertex="1" parent="1">
          <mxGeometry x="565" y="545" width="862.81" height="10" as="geometry" />
        </mxCell>
        <mxCell id="79AUoB6FNL37pNO1iU7B-77" value="" style="verticalLabelPosition=bottom;verticalAlign=top;html=1;shape=mxgraph.basic.rect;fillColor2=none;strokeWidth=1;size=20;indent=0;rotation=-90;fillColor=#CFDAFF;" vertex="1" parent="1">
          <mxGeometry x="297.18" y="537.18" width="585.62" height="10" as="geometry" />
        </mxCell>
        <mxCell id="79AUoB6FNL37pNO1iU7B-79" value="" style="endArrow=none;dashed=1;html=1;rounded=0;entryX=0.5;entryY=1;entryDx=0;entryDy=0;" edge="1" parent="1" target="79AUoB6FNL37pNO1iU7B-78">
          <mxGeometry width="50" height="50" relative="1" as="geometry">
            <mxPoint x="800" y="970" as="sourcePoint" />
            <mxPoint x="800" y="120.00000000000011" as="targetPoint" />
          </mxGeometry>
        </mxCell>
        <mxCell id="79AUoB6FNL37pNO1iU7B-78" value="" style="verticalLabelPosition=bottom;verticalAlign=top;html=1;shape=mxgraph.basic.rect;fillColor2=none;strokeWidth=1;size=20;indent=0;rotation=-90;fillColor=#CFDAFF;" vertex="1" parent="1">
          <mxGeometry x="523.6" y="543.6" width="552.81" height="10" as="geometry" />
        </mxCell>
      </root>
    </mxGraphModel>
  </diagram>
</mxfile>
